<svg width="615" height="236" viewBox="0 0 615 236" fill="none" xmlns="http://www.w3.org/2000/svg">
<path d="M400.734 0V149.67" stroke="white" stroke-miterlimit="10"/>
<path d="M562.715 2.3407L563.467 2.84161C571.674 8.26823 578.274 9.2492 588.298 9.2492C591.848 9.2492 595.628 8.58131 599.282 7.32901L600.243 6.99507L605.004 13.674L604.524 14.321C586.836 37.8224 600.619 63.1814 610.392 73.3042L611.29 74.2434L610.372 75.1618C609.098 76.4349 606.884 78.7517 605.234 80.4631L604.67 81.0476L604.712 81.8615V82.1329C604.712 82.3416 604.733 82.5503 604.775 82.926V83.0721C605.61 98.7467 601.559 111.604 592.704 121.33C583.307 131.64 568.5 137.86 550.979 138.82L550.311 138.862L549.809 139.321C545.361 143.37 540.829 146.751 540.788 146.772L539.994 147.357L539.201 146.772C539.013 146.626 534.544 143.308 530.137 139.3L529.636 138.841L528.968 138.799C511.467 137.839 496.64 131.619 487.242 121.309C478.409 111.604 474.336 98.7258 475.172 83.0512V82.9051C475.234 82.5503 475.234 82.3625 475.234 82.1537V82.0911V81.8407L475.276 81.0267L474.712 80.4423C473.167 78.8143 470.87 76.4349 469.575 75.1409L468.656 74.2225L469.554 73.2833C479.327 63.1606 493.111 37.8016 475.422 14.3001L474.921 13.6531L479.683 6.97419L480.643 7.30814C484.277 8.56044 488.078 9.22833 491.628 9.22833C501.673 9.22833 508.272 8.22649 516.458 2.82074L517.21 2.31982L517.941 2.82074C525.167 7.82993 532.163 10.1676 539.952 10.1676C547.742 10.1676 554.717 7.82993 561.964 2.82074L562.695 2.31982" fill="#EBBD00"/>
<path d="M486.118 60.338C491.653 47.6272 493.72 31.3264 484.406 15.3805C486.745 15.798 489.188 16.0484 491.653 16.0484C501.196 16.0484 508.694 15.1718 517.131 10.4131C523.771 14.4413 531.227 16.9876 539.956 16.9876C548.706 16.9876 556.162 14.4204 562.824 10.4131C571.261 15.1718 578.779 16.0484 588.322 16.0484C590.808 16.0484 593.251 15.798 595.59 15.3388C586.255 31.3264 588.302 47.6272 593.857 60.338H486.118Z" fill="white"/>
<path d="M593.846 60.338C588.312 47.6272 586.244 31.3264 595.579 15.3388C593.22 15.798 590.776 16.0484 588.312 16.0484C578.768 16.0484 571.271 15.1718 562.813 10.4131C556.151 14.4413 548.717 16.9876 539.946 16.9876C539.862 16.9876 539.779 16.9876 539.695 16.9876V60.338H593.825H593.846Z" fill="#FFDD00"/>
<path d="M581.997 121.724C592.606 113.96 598.892 101.583 597.952 83.5083C597.848 82.4856 597.764 82.423 597.681 81.3794H581.976V121.703L581.997 121.724Z" fill="#004A99"/>
<path d="M565.179 129.512C571.507 127.8 577.188 125.233 581.991 121.727V81.4028H565.179V129.512Z" fill="#A50343"/>
<path d="M497.984 121.727C502.787 125.233 508.468 127.8 514.795 129.512V81.4028H497.984V121.727Z" fill="#A50343"/>
<path d="M482.003 83.5265C481.084 101.601 487.349 113.978 497.979 121.742V81.4185H482.274C482.191 82.462 482.107 82.5038 482.003 83.5474V83.5265Z" fill="#004A99"/>
<path d="M540.02 90.3292C543.09 90.3292 545.951 91.2267 548.373 92.7294V81.417H531.562V92.792C534.006 91.2475 536.908 90.3292 539.999 90.3292H540.02Z" fill="#A50343"/>
<path d="M540.023 121.969C536.911 121.969 534.029 121.072 531.586 119.506V132.029C531.878 132.029 532.17 132.071 532.484 132.071C538.06 132.092 543.134 132.134 547.52 132.071C547.812 132.071 548.105 132.029 548.418 132.029V119.548C545.995 121.072 543.134 121.948 540.064 121.948L540.023 121.969Z" fill="#A50343"/>
<path d="M548.375 81.4028V92.7152C552.865 95.512 555.851 100.479 555.851 106.136C555.851 111.792 552.865 116.759 548.375 119.556V132.037C554.306 131.745 559.965 130.91 565.186 129.512V81.4028H548.375Z" fill="#004A99"/>
<path d="M524.184 106.157C524.184 100.521 527.128 95.5955 531.577 92.7779V81.4028H514.765V129.512C519.986 130.91 525.646 131.745 531.577 132.037V119.514C527.149 116.718 524.184 111.771 524.184 106.136V106.157Z" fill="#004A99"/>
<path d="M489.89 29.6384C491.018 35.1276 491.06 40.5334 490.329 45.6678H506.66V60.3614H522.698V45.6678H539.781V29.6384H522.698V13.3377C520.777 12.4819 518.939 11.5218 517.143 10.4365C513.551 12.4611 510.147 13.776 506.681 14.6317V29.6384H489.911H489.89Z" fill="#DD052B"/>
<path d="M574.279 60.3415V14.8414C572.358 14.4239 570.437 13.8604 568.515 13.1299V60.3624H574.279V60.3415Z" fill="#DD052B"/>
<path d="M551.225 60.3424V15.4893C549.366 16.011 547.445 16.3867 545.461 16.6581V60.3632H551.225V60.3424Z" fill="#DD052B"/>
<path d="M585.803 60.3393V16.0289C583.819 15.9872 581.897 15.9037 580.039 15.7158V60.3393H585.803Z" fill="#DD052B"/>
<path d="M562.756 60.3417V10.4585C560.897 11.5856 558.976 12.5665 556.992 13.4431V60.3417H562.756Z" fill="#DD052B"/>
<path d="M613.941 74.2403L611.748 71.9653C602.372 62.2392 589.111 37.9237 606.026 15.445L607.363 13.6709L600.972 4.71699L598.675 5.51011C595.229 6.69979 591.638 7.32594 588.317 7.32594C578.648 7.32594 572.32 6.38671 564.531 1.23143L562.714 0.0208716L560.918 1.27317C554.026 6.05277 547.364 8.28603 539.993 8.28603C532.621 8.28603 525.959 6.05277 519.067 1.27317L517.25 0L515.434 1.21055C507.644 6.36584 501.316 7.30507 491.647 7.30507C488.306 7.30507 484.735 6.67892 481.289 5.48923L478.992 4.69611L472.601 13.65L473.938 15.4241C490.854 37.9029 477.593 62.2183 468.216 71.9445L466.023 74.2195L468.258 76.4527C469.469 77.6633 471.599 79.8757 473.374 81.7332C473.374 81.8376 473.374 81.9211 473.374 82.0254C473.374 82.2133 473.374 82.3803 473.332 82.6933V82.9021C472.455 99.1193 476.674 112.456 485.883 122.558C495.636 133.265 510.881 139.673 528.903 140.675C533.373 144.745 537.904 148.105 538.113 148.251L540.034 149.67L541.956 148.23C542.164 148.084 546.675 144.703 551.124 140.654C569.146 139.673 584.391 133.265 594.144 122.537C603.353 112.435 607.572 99.0776 606.715 82.8812V82.6725C606.653 82.3594 606.653 82.1924 606.653 82.0046C606.653 81.9211 606.653 81.8167 606.653 81.7124C608.428 79.8548 610.558 77.6424 611.769 76.4319L614.004 74.1986L613.941 74.2403ZM603.27 80.5644C603.437 82.1924 603.332 82.1298 603.458 83.0899C605.379 119.219 580.193 136.271 549.766 137.523C545.109 141.864 539.993 145.684 539.993 145.684C539.993 145.684 534.834 141.864 530.198 137.523C499.771 136.271 474.585 119.198 476.507 83.0899C476.611 82.1298 476.507 82.1924 476.695 80.5644C474.94 78.7277 472.059 75.7013 470.534 74.1986C481.456 62.8862 494.195 36.9845 476.507 13.5039L480.245 8.55736C483.774 9.76792 487.7 10.561 491.647 10.561C501.776 10.561 508.709 9.5592 517.209 3.92386C523.933 8.59911 531.222 11.5211 539.972 11.5211C548.722 11.5211 556.01 8.59911 562.735 3.92386C571.255 9.5592 578.168 10.561 588.296 10.561C592.243 10.561 596.169 9.78879 599.699 8.55736L603.437 13.5039C585.748 36.9845 598.487 62.8862 609.409 74.1986C607.885 75.7222 605.003 78.7277 603.249 80.5644H603.27Z" fill="#1D1D1B"/>
<path d="M481.794 81.3587C481.752 81.9014 481.711 82.1727 481.669 82.4649C481.627 82.7154 481.585 82.9867 481.543 83.4876C480.833 97.3881 484.3 108.617 491.86 116.903C500.527 126.4 514.56 131.805 532.478 132.557H533.168C536.154 132.557 538.973 132.599 541.625 132.599C543.714 132.599 545.677 132.599 547.535 132.557C565.433 131.826 579.466 126.4 588.133 116.903C595.693 108.617 599.159 97.3672 598.449 83.4667C598.408 82.9867 598.366 82.7154 598.324 82.4649C598.282 82.1727 598.241 81.9014 598.199 81.3587L598.157 80.9204H481.857L481.815 81.3587H481.794ZM482.483 83.5711C482.525 83.1119 482.567 82.8615 482.609 82.611C482.65 82.3814 482.671 82.1727 482.713 81.8805H597.238C597.28 82.1936 597.301 82.4023 597.343 82.611C597.384 82.8406 597.426 83.1119 597.468 83.5294C598.157 97.1585 594.774 108.158 587.402 116.235C578.902 125.544 565.098 130.845 547.494 131.576C543.296 131.638 538.472 131.618 533.168 131.576H532.499C514.874 130.845 501.07 125.544 492.57 116.235C485.198 108.158 481.815 97.1377 482.504 83.5502L482.483 83.5711Z" fill="#1D1D1B"/>
<path d="M485.68 60.1512L485.387 60.8191H594.587L594.295 60.1512C589.554 49.2771 586.004 32.7259 596.007 15.5903L596.55 14.6719L595.506 14.8806C593.084 15.3398 590.661 15.5694 588.322 15.5694C578.569 15.5694 571.323 14.6511 563.074 9.99669L562.823 9.85059L562.573 9.99669C555.326 14.3797 547.933 16.5086 539.956 16.5086C531.999 16.5086 524.606 14.3797 517.381 9.99669L517.13 9.85059L516.88 9.99669C508.631 14.6511 501.384 15.5694 491.631 15.5694C489.355 15.5694 486.954 15.3398 484.468 14.9015L483.445 14.7137L483.967 15.6112C493.97 32.705 490.399 49.2562 485.659 60.1303L485.68 60.1512ZM540.269 17.4896C548.226 17.427 555.618 15.2981 562.844 10.9777C571.177 15.6112 578.507 16.5295 588.322 16.5295C590.39 16.5295 592.52 16.3417 594.671 15.9868C585.294 32.7885 588.531 48.964 593.125 59.8381H540.269V17.4896ZM485.325 16.0286C487.496 16.3625 489.627 16.5295 491.652 16.5295C501.468 16.5295 508.798 15.6112 517.13 10.9777C524.251 15.2355 531.498 17.3644 539.288 17.4896V59.859H486.849C491.443 48.964 494.701 32.8094 485.325 16.0286Z" fill="#1D1D1B"/>
<path d="M526.187 66.6235V63.4302H515.39V78.416H518.627V72.238H523.055V69.0655H518.627V66.6235H526.187Z" fill="#1D1D1B"/>
<path d="M538.846 66.4335C540.037 66.4335 540.851 66.9344 541.394 67.9362L541.457 68.0823L544.464 66.7048L544.401 66.5587C543.336 64.3672 541.436 63.2192 538.888 63.2192C534.962 63.2192 532.226 66.3917 532.226 70.9417C532.226 75.4917 534.795 78.6642 538.784 78.6642C541.394 78.6642 543.253 77.5163 544.36 75.2622L544.422 75.1369L541.687 73.5089L541.603 73.6342C540.83 74.9282 540.079 75.4291 538.867 75.4291C536.883 75.4291 535.547 73.6133 535.547 70.9417C535.547 68.2702 536.821 66.4543 538.846 66.4543V66.4335Z" fill="#1D1D1B"/>
<path d="M563.944 67.4818C563.944 64.9564 562.149 63.4536 559.141 63.4536H552.25V78.4186H559.058C562.42 78.4186 564.425 76.5819 564.425 73.5346C564.425 72.1153 563.736 70.9465 562.524 70.3204C563.402 69.6734 563.924 68.6715 563.924 67.5027L563.944 67.4818ZM555.445 66.4591H559.016C560.478 66.4591 560.666 67.127 560.666 67.7114C560.666 68.5254 560.185 68.9428 559.162 68.9428H555.445V66.48V66.4591ZM559.183 75.3087H555.445V71.844H559.183C560.499 71.844 561.125 72.3867 561.125 73.5763C561.125 74.766 560.457 75.3087 559.183 75.3087Z" fill="#1D1D1B"/>
<path d="M539.911 122.224C548.828 122.224 556.096 114.96 556.096 106.048C556.096 97.1359 548.828 89.8726 539.911 89.8726C530.994 89.8726 523.726 97.1359 523.726 106.048C523.726 114.96 530.994 122.224 539.911 122.224ZM539.911 121.243C536.779 121.243 533.855 120.282 531.432 118.655C534.648 118.508 538.909 117.694 541.561 116.108C544.129 114.585 546.844 112.664 547.346 110.118C549.204 109.179 552.775 109.617 553.235 113.374C550.645 118.049 545.654 121.222 539.911 121.222V121.243ZM532.414 109.534C533.166 110.014 534.064 110.368 535.129 110.494C537.238 110.765 540.183 108.678 540.371 106.299C543.273 104.253 545.508 106.111 546.197 107.718C547.534 110.911 544.714 113.207 541.122 115.357C538.324 117.027 533.458 117.82 530.284 117.799C528.613 116.421 527.235 114.689 526.274 112.706C526.399 112.706 526.525 112.706 526.65 112.706C529.156 112.706 531.286 111.558 532.456 109.534H532.414ZM529.991 101.853C529.95 98.8682 530.785 96.2593 531.453 93.4207C533.521 92.0223 535.964 91.1457 538.574 90.9161C536.82 92.8363 537.175 95.6331 538.992 97.0733C538.575 97.3863 538.178 97.8038 537.864 98.3256C536.528 100.454 536.34 104.024 539.452 106.278C539.264 108.052 536.883 109.805 535.233 109.596C531.704 109.137 530.054 105.881 529.991 101.853ZM547.408 109.116C547.387 108.553 547.262 107.968 546.991 107.342C546.176 105.422 543.399 103.063 539.89 105.485C537.321 103.543 537.468 100.58 538.616 98.7847C540.391 95.9879 544.401 97.0941 548.077 99.1604C551.063 100.83 554.175 104.295 555.052 107.446C554.905 109.074 554.488 110.64 553.861 112.08C552.838 108.866 549.476 108.386 547.408 109.116ZM548.515 98.3673C545.863 96.8854 542.375 95.5288 539.869 96.5723C537.969 95.3827 537.635 92.4189 540.036 90.8535C548.056 90.9161 554.613 97.1985 555.072 105.13C553.632 102.396 551.021 99.7657 548.515 98.3673ZM530.305 94.2556C530.012 95.3827 529.741 96.3428 529.532 97.3446C528.759 100.935 528.759 106.319 531.683 108.97C530.681 110.765 528.843 111.788 526.587 111.788C526.316 111.788 526.065 111.788 525.794 111.725C525.084 109.972 524.687 108.052 524.687 106.027C524.687 101.268 526.88 97.0107 530.305 94.2347V94.2556Z" fill="#1D1D1B"/>
<path d="M38.7578 190.104C38.7578 184.531 41.6606 181.504 47.0695 181.504C52.4783 181.504 55.3811 184.531 55.3811 190.104V194.946C55.3811 200.477 52.4783 203.545 47.0695 203.545C41.6606 203.545 38.7578 200.518 38.7578 194.946V190.104ZM47.0695 199.725C49.9096 199.725 51.1 198.41 51.1 195.259V189.79C51.1 186.639 49.9096 185.324 47.0695 185.324C44.2293 185.324 43.0389 186.639 43.0389 189.79V195.259C43.0389 198.41 44.2293 199.725 47.0695 199.725Z" fill="white"/>
<path d="M59.1641 181.814H72.4251L71.7986 185.676H63.4452V190.58H70.9632V194.442H63.4452V203.187H59.1641V181.793V181.814Z" fill="white"/>
<path d="M75.1172 181.814H88.3782L87.7517 185.676H79.3983V190.58H86.9164V194.442H79.3983V203.187H75.1172V181.793V181.814Z" fill="white"/>
<path d="M92.2838 199.85V185.177L90.1328 184.802V181.817H98.6951V184.802L96.5649 185.177V199.85L98.6951 200.226V203.21H90.1328V200.226L92.2838 199.85Z" fill="white"/>
<path d="M101.539 189.809C101.539 184.152 104.337 181.606 109.475 181.606C113.881 181.606 115.907 184.006 115.907 184.006V187.346H112.419C112.419 187.346 112.169 185.425 109.517 185.425C106.718 185.425 105.841 186.803 105.841 189.746V195.339C105.841 198.261 106.718 199.66 109.517 199.66C112.169 199.66 112.419 197.74 112.419 197.74H115.907V201.079C115.907 201.079 113.902 203.479 109.475 203.479C104.337 203.479 101.539 200.933 101.539 195.277V189.871V189.809Z" fill="white"/>
<path d="M120.409 199.85V185.177L118.258 184.802V181.817H126.82V184.802L124.69 185.177V199.85L126.82 200.226V203.21H118.258V200.226L120.409 199.85Z" fill="white"/>
<path d="M129.141 200.831L134.403 181.817H141.337L146.599 200.831V203.231H142.757L141.587 198.723C140.334 198.973 139.06 199.099 137.786 199.099C136.513 199.099 135.259 198.973 134.069 198.744L132.9 203.21H129.162V200.81L129.141 200.831ZM134.988 195.175C135.865 195.342 136.805 195.425 137.766 195.425C138.726 195.425 139.687 195.321 140.627 195.133L139.374 190.374C138.872 188.391 138.246 185.616 138.246 185.616H137.39C137.39 185.616 136.763 188.391 136.22 190.374L134.988 195.154V195.175Z" fill="white"/>
<path d="M149.812 181.817H154.094V199.349H162.76L162.134 203.21H149.833V181.817H149.812Z" fill="white"/>
<path d="M170.891 189.809C170.891 184.152 173.689 181.606 178.826 181.606C183.233 181.606 185.258 184.006 185.258 184.006V187.346H181.771C181.771 187.346 181.52 185.425 178.868 185.425C176.07 185.425 175.193 186.803 175.193 189.746V195.339C175.193 198.261 176.07 199.66 178.868 199.66C181.52 199.66 181.771 197.74 181.771 197.74H185.258V201.079C185.258 201.079 183.254 203.479 178.826 203.479C173.689 203.479 170.891 200.933 170.891 195.277V189.871V189.809Z" fill="white"/>
<path d="M188.578 181.817H196.681C201.338 181.817 203.886 184.029 203.886 188.162C203.886 193.046 199.479 194.59 199.479 194.59C199.479 194.59 201.589 198.368 203.802 200.622V203.21H200.523C197.85 200.288 195.115 195.029 195.115 195.029H192.88V203.21H188.599V181.817H188.578ZM197.621 191.167C197.621 191.167 199.605 190.666 199.605 188.371C199.605 186.68 198.56 185.699 196.827 185.699H192.859V191.167H197.621Z" fill="white"/>
<path d="M211.543 199.847V195.193L205.57 184.486V181.814H208.807L212.149 188.097C212.838 189.412 213.694 191.332 213.694 191.332H213.882C213.882 191.332 214.696 189.579 215.427 188.243L218.894 181.793H222.006V184.465L215.824 195.172V199.827L218.121 200.202V203.187H209.246V200.202L211.543 199.827V199.847Z" fill="white"/>
<path d="M224.789 181.817H232.725C237.507 181.817 239.971 184.175 239.971 188.579C239.971 193.797 235.273 195.383 235.273 195.383H229.07V203.21H224.789V181.817ZM233.852 191.501C233.852 191.501 235.669 190.833 235.669 188.412C235.669 186.784 234.688 185.678 232.746 185.678H229.07V191.501H233.852Z" fill="white"/>
<path d="M250.533 185.678V203.21H246.252V185.678H241.156V181.817H255.837L255.211 185.678H250.554H250.533Z" fill="white"/>
<path d="M257.703 190.104C257.703 184.531 260.606 181.504 266.015 181.504C271.424 181.504 274.326 184.531 274.326 190.104V194.946C274.326 200.477 271.424 203.545 266.015 203.545C260.606 203.545 257.703 200.518 257.703 194.946V190.104ZM266.015 199.725C268.855 199.725 270.045 198.41 270.045 195.259V189.79C270.045 186.639 268.855 185.324 266.015 185.324C263.175 185.324 261.984 186.639 261.984 189.79V195.259C261.984 198.41 263.175 199.725 266.015 199.725Z" fill="white"/>
<path d="M277.477 189.809C277.477 184.152 280.275 181.606 285.412 181.606C289.819 181.606 291.844 184.006 291.844 184.006V187.346H288.357C288.357 187.346 288.106 185.425 285.454 185.425C282.656 185.425 281.779 186.803 281.779 189.746V195.339C281.779 198.261 282.656 199.66 285.454 199.66C288.106 199.66 288.357 197.74 288.357 197.74H291.844V201.079C291.844 201.079 289.84 203.479 285.412 203.479C280.275 203.479 277.477 200.933 277.477 195.277V189.871V189.809Z" fill="white"/>
<path d="M295.021 181.817H299.302V195.947C299.302 198.869 300.284 199.725 302.915 199.725C305.379 199.725 306.716 198.431 306.716 198.431V181.817H310.997V203.21H307.655L307.154 201.269H307.029C307.029 201.269 304.794 203.44 301.516 203.44C297.13 203.44 295 201.457 295 196.177V181.838L295.021 181.817Z" fill="white"/>
<path d="M315.422 181.817H323.504C328.161 181.817 330.709 184.029 330.709 188.162C330.709 193.046 326.302 194.59 326.302 194.59C326.302 194.59 328.411 198.368 330.625 200.622V203.21H327.346C324.673 200.288 321.938 195.029 321.938 195.029H319.703V203.21H315.422V181.817ZM324.464 191.167C324.464 191.167 326.448 190.666 326.448 188.371C326.448 186.68 325.404 185.699 323.671 185.699H319.703V191.167H324.464Z" fill="white"/>
<path d="M334.047 181.817H342.129C346.786 181.817 349.334 184.029 349.334 188.162C349.334 193.046 344.927 194.59 344.927 194.59C344.927 194.59 347.036 198.368 349.25 200.622V203.21H345.971C343.298 200.288 340.563 195.029 340.563 195.029H338.328V203.21H334.047V181.817ZM343.089 191.167C343.089 191.167 345.073 190.666 345.073 188.371C345.073 186.68 344.029 185.699 342.296 185.699H338.328V191.167H343.089Z" fill="white"/>
<path d="M352.68 181.814H366.254L365.627 185.676H356.961V190.58H364.792V194.442H356.961V199.326H365.941V203.187H352.68V181.793V181.814Z" fill="white"/>
<path d="M369.721 181.814H373.648L379.746 191.854C380.247 192.668 381.437 195.089 381.437 195.089H381.5C381.5 195.089 381.333 192.793 381.333 190.685V181.814H385.489V203.208H381.333V201.475L375.945 192.688C375.256 191.457 373.836 189.015 373.836 189.015H373.731C373.731 189.015 373.836 190.956 373.836 193.064V203.187H369.68V181.793L369.721 181.814Z" fill="white"/>
<path d="M389.289 189.809C389.289 184.152 392.087 181.606 397.225 181.606C401.631 181.606 403.657 184.006 403.657 184.006V187.346H400.169C400.169 187.346 399.919 185.425 397.267 185.425C394.468 185.425 393.591 186.803 393.591 189.746V195.339C393.591 198.261 394.468 199.66 397.267 199.66C399.919 199.66 400.169 197.74 400.169 197.74H403.657V201.079C403.657 201.079 401.652 203.479 397.225 203.479C392.087 203.479 389.289 200.933 389.289 195.277V189.871V189.809Z" fill="white"/>
<path d="M411.34 199.847V195.193L405.367 184.486V181.814H408.604L411.946 188.097C412.635 189.412 413.491 191.332 413.491 191.332H413.679C413.679 191.332 414.493 189.579 415.224 188.243L418.691 181.793H421.803V184.465L415.621 195.172V199.827L417.918 200.202V203.187H409.043V200.202L411.34 199.827V199.847Z" fill="white"/>
<path d="M430.844 181.814H444.418L443.792 185.676H435.125V190.58H442.956V194.442H435.125V199.326H444.105V203.187H430.844V181.793V181.814Z" fill="white"/>
<path d="M446.367 200.708L450.899 192.443V192.255L446.367 184.366V181.84H449.792L452.194 186.161C453.321 188.206 454.428 190.502 454.428 190.502H455.222C455.222 190.502 456.349 188.206 457.477 186.161L459.879 181.84H463.158V184.366L458.688 192.255V192.443L463.158 200.708V203.234H459.733L457.31 198.705C456.433 197.035 455.138 194.322 455.138 194.322H454.345C454.345 194.322 453.029 197.035 452.131 198.705L449.709 203.234H446.367V200.708Z" fill="white"/>
<path d="M465.406 189.809C465.406 184.152 468.205 181.606 473.342 181.606C477.748 181.606 479.774 184.006 479.774 184.006V187.346H476.287C476.287 187.346 476.036 185.425 473.384 185.425C470.585 185.425 469.708 186.803 469.708 189.746V195.339C469.708 198.261 470.585 199.66 473.384 199.66C476.036 199.66 476.287 197.74 476.287 197.74H479.774V201.079C479.774 201.079 477.769 203.479 473.342 203.479C468.205 203.479 465.406 200.933 465.406 195.277V189.871V189.809Z" fill="white"/>
<path d="M498.903 203.21H494.621V194.465H487.375V203.21H483.094V181.817H487.375V190.604H494.621V181.817H498.903V203.21Z" fill="white"/>
<path d="M502.164 200.831L507.427 181.817H514.36L519.623 200.831V203.231H515.78L514.611 198.723C513.358 198.973 512.084 199.099 510.81 199.099C509.536 199.099 508.283 198.973 507.093 198.744L505.923 203.21H502.185V200.81L502.164 200.831ZM508.011 195.175C508.889 195.342 509.828 195.425 510.789 195.425C511.75 195.425 512.71 195.321 513.65 195.133L512.397 190.374C511.896 188.391 511.269 185.616 511.269 185.616H510.413C510.413 185.616 509.787 188.391 509.244 190.374L508.011 195.154V195.175Z" fill="white"/>
<path d="M522.839 181.814H526.765L532.863 191.854C533.364 192.668 534.554 195.089 534.554 195.089H534.617C534.617 195.089 534.45 192.793 534.45 190.685V181.814H538.606V203.208H534.45V201.475L529.062 192.688C528.373 191.457 526.953 189.015 526.953 189.015H526.869C526.869 189.015 526.953 190.956 526.953 193.064V203.187H522.797V181.793L522.839 181.814Z" fill="white"/>
<path d="M542.43 189.809C542.43 184.09 545.541 181.606 550.804 181.606C555.273 181.606 557.32 184.069 557.32 184.069V187.346H553.832C553.832 187.346 553.331 185.425 550.679 185.425C547.88 185.425 546.711 186.803 546.711 189.746V195.757C546.711 198.742 547.964 200.015 550.637 200.015C552.725 200.015 553.686 198.909 553.686 198.909V194.379H550.407V190.643H557.612V203.25H554.521L553.978 201.81H553.874C553.874 201.81 552.391 203.5 549.301 203.5C544.727 203.5 542.367 200.912 542.367 195.506V189.85L542.43 189.809Z" fill="white"/>
<path d="M561.93 181.814H575.504L574.877 185.676H566.211V190.58H574.042V194.442H566.211V199.326H575.191V203.187H561.93V181.793V181.814Z" fill="white"/>
<path d="M118.758 213.274H126.694C131.476 213.274 133.94 215.632 133.94 220.036C133.94 225.254 129.241 226.84 129.241 226.84H123.039V234.667H118.758V213.274ZM127.821 222.958C127.821 222.958 129.659 222.29 129.659 219.869C129.659 218.241 128.677 217.135 126.735 217.135H123.06V222.958H127.842H127.821Z" fill="white"/>
<path d="M135.68 232.288L140.942 213.274H147.876L153.138 232.288V234.688H149.296L148.126 230.18C146.873 230.43 145.599 230.556 144.325 230.556C143.052 230.556 141.799 230.43 140.608 230.201L139.439 234.667H135.701V232.267L135.68 232.288ZM141.527 226.632C142.404 226.799 143.344 226.882 144.305 226.882C145.265 226.882 146.226 226.778 147.166 226.59L145.913 221.831C145.411 219.848 144.785 217.073 144.785 217.073H143.929C143.929 217.073 143.302 219.848 142.759 221.831L141.527 226.611V226.632Z" fill="white"/>
<path d="M156.352 213.274H164.454C169.111 213.274 171.659 215.486 171.659 219.64C171.659 224.524 167.253 226.068 167.253 226.068C167.253 226.068 169.362 229.846 171.576 232.1V234.688H168.297C165.624 231.766 162.888 226.507 162.888 226.507H160.654V234.688H156.372V213.295L156.352 213.274ZM165.394 222.624C165.394 222.624 167.378 222.123 167.378 219.828C167.378 218.137 166.334 217.156 164.601 217.156H160.633V222.624H165.394Z" fill="white"/>
<path d="M182.666 217.135V234.667H178.385V217.135H173.289V213.274H187.97L187.344 217.135H182.687H182.666Z" fill="white"/>
<path d="M190.479 213.271H194.405L200.503 223.311C201.005 224.125 202.195 226.546 202.195 226.546H202.258C202.258 226.546 202.091 224.25 202.091 222.142V213.271H206.246V234.665H202.091V232.932L196.703 224.145C196.013 222.914 194.593 220.472 194.593 220.472H194.489C194.489 220.472 194.593 222.413 194.593 224.521V234.644H190.438V213.25L190.479 213.271Z" fill="white"/>
<path d="M210.688 213.271H224.262L223.635 217.133H214.969V222.037H222.8V225.899H214.969V230.783H223.949V234.644H210.688V213.25V213.271Z" fill="white"/>
<path d="M227.711 213.274H235.793C240.45 213.274 242.998 215.486 242.998 219.64C242.998 224.524 238.591 226.068 238.591 226.068C238.591 226.068 240.7 229.846 242.914 232.1V234.688H239.635C236.962 231.766 234.227 226.507 234.227 226.507H231.992V234.688H227.711V213.295V213.274ZM236.754 222.624C236.754 222.624 238.737 222.123 238.737 219.828C238.737 218.137 237.693 217.156 235.96 217.156H231.992V222.624H236.754Z" fill="white"/>
<path d="M252.016 221.561C252.016 215.988 254.918 212.962 260.327 212.962C265.736 212.962 268.639 215.988 268.639 221.561V226.403C268.639 231.934 265.736 235.002 260.327 235.002C254.918 235.002 252.016 231.976 252.016 226.403V221.561ZM260.327 231.183C263.167 231.183 264.358 229.868 264.358 226.716V221.248C264.358 218.096 263.167 216.781 260.327 216.781C257.487 216.781 256.297 218.096 256.297 221.248V226.716C256.297 229.868 257.487 231.183 260.327 231.183Z" fill="white"/>
<path d="M272.422 213.271H285.683L285.056 217.133H276.703V222.037H284.221V225.899H276.703V234.644H272.422V213.25V213.271Z" fill="white"/>
<path d="M294.68 213.271H307.941L307.314 217.133H298.961V222.037H306.479V225.899H298.961V234.644H294.68V213.25V213.271Z" fill="white"/>
<path d="M310.016 221.266C310.016 215.609 312.814 213.063 317.951 213.063C322.358 213.063 324.383 215.463 324.383 215.463V218.803H320.896C320.896 218.803 320.645 216.882 317.993 216.882C315.195 216.882 314.318 218.26 314.318 221.182V226.776C314.318 229.698 315.195 231.096 317.993 231.096C320.645 231.096 320.896 229.176 320.896 229.176H324.383V232.515C324.383 232.515 322.379 234.916 317.951 234.916C312.814 234.916 310.016 232.369 310.016 226.713V221.307V221.266Z" fill="white"/>
<path d="M333.984 213.274H341.732C346.869 213.274 348.665 215.612 348.665 219.118C348.665 222.624 346.18 223.835 346.18 223.835V223.898C346.18 223.898 348.979 225.338 348.979 228.531C348.979 232.371 346.869 234.667 342.025 234.667H334.005V213.274H333.984ZM338.14 216.947V222.019H342.797C342.797 222.019 344.468 221.351 344.468 219.41C344.468 218.095 343.737 216.947 341.878 216.947H338.14ZM338.14 225.63V230.973H342.15C343.883 230.973 344.802 229.867 344.802 228.301C344.802 226.319 342.923 225.63 342.923 225.63H338.161H338.14Z" fill="white"/>
<path d="M351.281 232.288L356.544 213.274H363.477L368.74 232.288V234.688H364.897L363.728 230.18C362.475 230.43 361.201 230.556 359.927 230.556C358.653 230.556 357.4 230.43 356.21 230.201L355.04 234.667H351.302V232.267L351.281 232.288ZM357.129 226.632C358.006 226.799 358.946 226.882 359.906 226.882C360.867 226.882 361.827 226.778 362.767 226.59L361.514 221.831C361.013 219.848 360.386 217.073 360.386 217.073H359.53C359.53 217.073 358.904 219.848 358.361 221.831L357.129 226.611V226.632Z" fill="white"/>
<path d="M371.953 213.274H380.056C384.713 213.274 387.261 215.486 387.261 219.64C387.261 224.524 382.854 226.068 382.854 226.068C382.854 226.068 384.964 229.846 387.177 232.1V234.688H383.898C381.225 231.766 378.49 226.507 378.49 226.507H376.255V234.688H371.974V213.295L371.953 213.274ZM380.996 222.624C380.996 222.624 382.98 222.123 382.98 219.828C382.98 218.137 381.935 217.156 380.202 217.156H376.234V222.624H380.996Z" fill="white"/>
<path d="M389.977 221.266C389.977 215.609 392.775 213.063 397.912 213.063C402.319 213.063 404.344 215.463 404.344 215.463V218.803H400.857C400.857 218.803 400.606 216.882 397.954 216.882C395.156 216.882 394.279 218.26 394.279 221.182V226.776C394.279 229.698 395.156 231.096 397.954 231.096C400.606 231.096 400.857 229.176 400.857 229.176H404.344V232.515C404.344 232.515 402.34 234.916 397.912 234.916C392.775 234.916 389.977 232.369 389.977 226.713V221.307V221.266Z" fill="white"/>
<path d="M407.664 213.271H421.238L420.612 217.133H411.945V222.037H419.777V225.899H411.945V230.783H420.925V234.644H407.664V213.25V213.271Z" fill="white"/>
<path d="M424.68 213.274H428.961V230.806H437.627L437.001 234.667H424.701V213.274H424.68Z" fill="white"/>
<path d="M439.453 221.561C439.453 215.988 442.356 212.962 447.765 212.962C453.174 212.962 456.076 215.988 456.076 221.561V226.403C456.076 231.934 453.174 235.002 447.765 235.002C442.356 235.002 439.453 231.976 439.453 226.403V221.561ZM447.765 231.183C450.605 231.183 451.795 229.868 451.795 226.716V221.248C451.795 218.096 450.605 216.781 447.765 216.781C444.925 216.781 443.734 218.096 443.734 221.248V226.716C443.734 229.868 444.925 231.183 447.765 231.183Z" fill="white"/>
<path d="M459.854 213.271H463.78L469.878 223.311C470.38 224.125 471.57 226.546 471.57 226.546H471.633C471.633 226.546 471.466 224.25 471.466 222.142V213.271H475.621V234.665H471.466V232.932L466.078 224.145C465.388 222.914 463.968 220.472 463.968 220.472H463.885C463.885 220.472 463.968 222.413 463.968 224.521V234.644H459.812V213.25L459.854 213.271Z" fill="white"/>
<path d="M478.898 232.288L484.161 213.274H491.094L496.357 232.288V234.688H492.514L491.345 230.18C490.092 230.43 488.818 230.556 487.544 230.556C486.27 230.556 485.017 230.43 483.827 230.201L482.657 234.667H478.919V232.267L478.898 232.288ZM484.746 226.632C485.623 226.799 486.563 226.882 487.523 226.882C488.484 226.882 489.445 226.778 490.384 226.59L489.131 221.831C488.63 219.848 488.004 217.073 488.004 217.073H487.147C487.147 217.073 486.521 219.848 485.978 221.831L484.746 226.611V226.632Z" fill="white"/>
<path d="M278.773 65.145L268.958 64.1849V52.0376H260.562V56.5667C260.562 66.0216 264.301 69.3193 268.811 70.7803H260.562V81.9466C260.562 92.9251 265.992 97.2455 276.392 97.2455C286.792 97.2455 292.222 92.9251 292.222 81.9466V80.4647C292.222 67.4826 285.184 65.8129 278.794 65.1658M283.827 81.9466V89.5648H268.958V70.8221C270.587 71.3438 272.32 71.6152 273.991 71.8656L283.806 73.3475V81.9258L283.827 81.9466Z" fill="#EABC4C"/>
<path d="M303.831 52.0376C301.179 52.0376 299.383 53.8534 299.383 56.4833C299.383 59.1131 301.2 60.9289 303.831 60.9289C306.462 60.9289 308.279 59.1131 308.279 56.4833C308.279 53.8534 306.462 52.0376 303.831 52.0376Z" fill="#EABC4C"/>
<path d="M331.611 64.9599H324.176V57.3418H315.781C315.781 68.3203 321.211 72.6407 331.611 72.6407H335.099V64.9599H331.611Z" fill="#EABC4C"/>
<path d="M324.2 89.5473V71.5977H315.805V81.9291C315.805 92.9076 321.234 97.228 331.634 97.228H335.122V89.5473H324.2Z" fill="#EABC4C"/>
<path d="M308.036 64.958H299.641V97.2464H308.036V64.958Z" fill="#EABC4C"/>
<path d="M184.776 52.0376C182.124 52.0376 180.328 53.8534 180.328 56.4833C180.328 59.1131 182.145 60.9289 184.776 60.9289C187.408 60.9289 189.224 59.1131 189.224 56.4833C189.224 53.8534 187.408 52.0376 184.776 52.0376Z" fill="white"/>
<path d="M238.009 64.958H222.18V68.9654C222.18 79.9438 227.609 84.2642 238.009 84.2642H253.839V80.2569C253.839 69.2784 248.409 64.958 238.009 64.958ZM230.575 77.2305V71.9917H245.444V77.2931H238.009V77.2305H230.575Z" fill="white"/>
<path d="M205.122 64.9599V57.3418H196.727C196.727 68.3203 202.156 72.6407 212.556 72.6407H216.044V64.9599H205.122Z" fill="white"/>
<path d="M205.122 89.5473V71.5977H196.727V81.9291C196.727 92.9076 202.156 97.228 212.556 97.228H216.044V89.5473H205.122Z" fill="white"/>
<path d="M188.981 64.958H180.586V97.2464H188.981V64.958Z" fill="white"/>
<path d="M158.929 65.145L149.114 64.1849V52.0376H140.719V56.5667C140.719 66.0216 144.457 69.3193 148.968 70.7803H140.719V97.2455H149.114V70.8221C150.743 71.3438 152.476 71.6152 154.147 71.8656L163.962 73.3475V97.2455H172.357V80.4647C172.357 67.4826 165.32 65.8129 158.929 65.1658" fill="white"/>
<path d="M123.716 89.5422H113.567V64.9346H105.172V81.9241C105.172 92.9025 110.602 97.223 121.002 97.223H132.112V64.9346H123.716V89.5422Z" fill="white"/>
<path d="M95.4186 89.5422V64.9346H87.0234V81.9241C87.0234 92.9025 92.4531 97.223 102.853 97.223H106.341V89.5422H95.4186Z" fill="white"/>
<path d="M230.575 89.5458V83.2217H222.18C222.18 92.9061 227.609 97.2265 238.009 97.2265H252.168V89.5458H230.596H230.575Z" fill="white"/>
<path d="M65.9293 56.7506L80.0883 42.5996H62.6923C54.8819 42.5996 48.5333 48.9446 48.5333 56.7506H31.4506L45.6096 42.5996H28.4225C20.612 42.5996 14.2634 48.9446 14.2634 56.7506H14.159C6.34859 56.7506 0 63.0955 0 70.9015H14.2634V81.5669C14.2634 95.697 25.7494 107.135 39.8875 107.114H65.9084V56.7506M47.9694 80.0015C45.8602 77.8935 45.8602 74.4914 47.9694 72.3834L55.5919 80.0015C53.4827 82.1096 50.0787 82.1096 47.9694 80.0015Z" fill="white"/>
</svg>
