<svg width="24" height="24" viewBox="0 0 24 24" fill="none" xmlns="http://www.w3.org/2000/svg">
<path d="M11.9996 23C18.0746 23 22.9993 18.0751 22.9993 12C22.9993 5.92487 18.0746 1 11.9996 1C5.9247 1 1 5.92487 1 12C1 18.0751 5.9247 23 11.9996 23Z" fill="#666895"/>
<path d="M13.064 9.15459C12.9216 8.96644 12.7318 8.8194 12.514 8.72843C12.2963 8.63745 12.0583 8.60578 11.8244 8.63665C11.5904 8.66752 11.3688 8.75982 11.1821 8.90416C10.9953 9.0485 10.8502 9.23973 10.7614 9.45838L8.7477 14.4161L6.99524 11.104C6.82475 10.7999 6.54213 10.5745 6.20772 10.4759C5.87331 10.3773 5.51361 10.4134 5.20543 10.5764C4.89724 10.7394 4.665 11.0165 4.55827 11.3484C4.45155 11.6803 4.47881 12.0408 4.63422 12.3529L7.72849 18.1982C7.84149 18.4131 8.01094 18.593 8.2186 18.7187C8.42626 18.8445 8.66427 18.9112 8.90702 18.9117H8.97431C9.22839 18.8987 9.47351 18.8136 9.68087 18.6661C9.88822 18.5187 10.0492 18.3152 10.1449 18.0795L12.3536 12.6428L14.0269 14.8505C14.1693 15.0387 14.3591 15.1857 14.5768 15.2767C14.7946 15.3677 15.0326 15.3993 15.2665 15.3685C15.5005 15.3376 15.7221 15.2453 15.9088 15.1009C16.0955 14.9566 16.2407 14.7654 16.3295 14.5467L20.2955 4.77873C19.6728 4.06349 18.9604 3.43155 18.176 2.89856L14.7373 11.3613L13.064 9.15459Z" fill="#D4DC6B"/>
</svg>
