<svg width="24" height="24" viewBox="0 0 24 24" fill="none" xmlns="http://www.w3.org/2000/svg">
<path fill-rule="evenodd" clip-rule="evenodd" d="M8 4H4V8H8V4ZM4 2H2V4V8V10H4H8H10V8V4V2H8H4ZM8 16H4V20H8V16ZM4 14H2V16V20V22H4H8H10V20V16V14H8H4ZM16 4H20V8H16V4ZM14 2H16H20H22V4V8V10H20H16H14V8V4V2Z" fill="#666895"/>
<path fill-rule="evenodd" clip-rule="evenodd" d="M21.9996 14H19.333V16.6667H21.9996V14ZM16.6666 16.6666H19.3326V19.3333H16.666V16.6667H14V14H16.6666V16.6666ZM19.333 19.3334H21.9996V22H19.333V19.3334ZM14 19.3333H16.6666V22H14V19.3333Z" fill="#D4DC6B"/>
</svg>
