<svg width="24" height="24" viewBox="0 0 24 24" fill="none" xmlns="http://www.w3.org/2000/svg">
<rect x="5" y="21" width="4" height="3" rx="1" fill="#666895"/>
<rect x="15" y="21" width="4" height="3" rx="1" fill="#666895"/>
<rect x="1.5" y="0.5" width="21" height="21" rx="3.5" fill="#666895" stroke="#2D2D32"/>
<path fill-rule="evenodd" clip-rule="evenodd" d="M19 4H5V18H19V16H18.5C18.2239 16 18 15.7761 18 15.5V13.5C18 13.2239 18.2239 13 18.5 13H19V9H18.5C18.2239 9 18 8.77614 18 8.5V6.5C18 6.22386 18.2239 6 18.5 6H19V4ZM20 13.5V15.5V18V19H19H5H4V18V4V3H5H19H20V4V6.5V8.5V13.5Z" fill="#2D2D32"/>
<circle cx="12" cy="11" r="5" fill="#2D2D32"/>
<path fill-rule="evenodd" clip-rule="evenodd" d="M12 16C14.7614 16 17 13.7614 17 11C17 8.23858 14.7614 6 12 6C9.23858 6 7 8.23858 7 11C7 13.7614 9.23858 16 12 16ZM12 12.5C12.8284 12.5 13.5 11.8284 13.5 11C13.5 10.1716 12.8284 9.5 12 9.5C11.1716 9.5 10.5 10.1716 10.5 11C10.5 11.8284 11.1716 12.5 12 12.5ZM12.5 7V9H11.5V7H12.5ZM12.5 15V13H11.5V15H12.5ZM16 10.5V11.5H14V10.5H16ZM8 11.5H10V10.5H8V11.5ZM14.4912 7.83423L15.1983 8.54134L13.7841 9.95555L13.077 9.24844L14.4912 7.83423ZM10.9239 12.7515L10.2168 12.0444L8.80258 13.4586L9.50969 14.1658L10.9239 12.7515ZM15.1514 13.5049L14.4443 14.2121L13.03 12.7978L13.7372 12.0907L15.1514 13.5049ZM10.2626 9.90926L10.9697 9.20215L9.55551 7.78793L8.84841 8.49504L10.2626 9.90926Z" fill="#D4DC6B"/>
</svg>
