<svg width="24" height="24" viewBox="0 0 24 24" fill="none" xmlns="http://www.w3.org/2000/svg">
<g clip-path="url(#clip0_12306_192929)">
<rect x="3.5" y="3.5" width="16" height="16" stroke="#666895"/>
<circle cx="4" cy="20" r="4.5" fill="#666895" stroke="#2D2D32"/>
<circle cx="20" cy="4" r="4.5" fill="#666895" stroke="#2D2D32"/>
<circle cx="4" cy="4" r="5" fill="#2D2D32"/>
<path fill-rule="evenodd" clip-rule="evenodd" d="M4 8C6.20914 8 8 6.20914 8 4C8 1.79086 6.20914 0 4 0C1.79086 0 0 1.79086 0 4C0 6.20914 1.79086 8 4 8ZM5.5 2.5H2.5V5.5H5.5V2.5Z" fill="#D4DC6B"/>
<circle cx="20" cy="20" r="5" fill="#2D2D32"/>
<path fill-rule="evenodd" clip-rule="evenodd" d="M20 24C22.2091 24 24 22.2091 24 20C24 17.7909 22.2091 16 20 16C17.7909 16 16 17.7909 16 20C16 22.2091 17.7909 24 20 24ZM21.5 18.5H18.5V21.5H21.5V18.5Z" fill="#D4DC6B"/>
</g>
<defs>
<clipPath id="clip0_12306_192929">
<rect width="24" height="24" fill="white"/>
</clipPath>
</defs>
</svg>
