<svg width="24" height="24" viewBox="0 0 24 24" fill="none" xmlns="http://www.w3.org/2000/svg">
<g clip-path="url(#clip0_12306_192928)">
<path d="M18.499 5.90229L23.339 1.17005M23.339 1.17005L18.9989 1.17001M23.339 1.17005L23.3391 5.40234" stroke="#D4DC6B" stroke-width="1.2"/>
<path d="M5.45611 18.5726L0.616063 23.3048M0.616063 23.3048L4.95614 23.3048M0.616063 23.3048L0.615974 19.0725" stroke="#D4DC6B" stroke-width="1.2"/>
<path fill-rule="evenodd" clip-rule="evenodd" d="M12.499 19.4023C16.365 19.4023 19.499 16.2683 19.499 12.4023C19.499 8.53635 16.365 5.40234 12.499 5.40234C8.63303 5.40234 5.49902 8.53635 5.49902 12.4023C5.49902 16.2683 8.63303 19.4023 12.499 19.4023ZM15.124 9.77734H9.87402V15.0273H15.124V9.77734Z" fill="#666895"/>
</g>
<defs>
<clipPath id="clip0_12306_192928">
<rect width="24" height="24" fill="white"/>
</clipPath>
</defs>
</svg>
