<svg width="24" height="24" viewBox="0 0 24 24" fill="none" xmlns="http://www.w3.org/2000/svg">
<path fill-rule="evenodd" clip-rule="evenodd" d="M6.14136 6.09198C6.7983 6 7.65685 6 9.00009 6H12.0001C13.8614 6 14.792 6 15.5452 6.24472C17.0674 6.73931 18.2608 7.93273 18.7554 9.45492C19.0001 10.2081 19.0001 11.1387 19.0001 13C19.0001 14.3432 19.0001 15.2018 18.9081 15.8587C19.2542 15.7943 19.5481 15.7006 19.8161 15.564C20.5687 15.1805 21.1806 14.5686 21.5641 13.816C22.0001 12.9603 22.0001 11.8402 22.0001 9.6V9.4C22.0001 7.15979 22.0001 6.03969 21.5641 5.18404C21.1806 4.43139 20.5687 3.81947 19.8161 3.43597C18.9604 3 17.8403 3 15.6001 3H12.4001C10.1599 3 9.03978 3 8.18413 3.43597C7.43148 3.81947 6.81956 4.43139 6.43607 5.18404C6.29954 5.45199 6.20577 5.74588 6.14136 6.09198Z" fill="#D3E058"/>
<path fill-rule="evenodd" clip-rule="evenodd" d="M2.43597 9.18404C2 10.0397 2 11.1598 2 13.4V13.6C2 15.8402 2 16.9603 2.43597 17.816C2.81947 18.5686 3.43139 19.1805 4.18404 19.564C5.03969 20 6.15979 20 8.4 20H10L12 22L14.0409 19.9591C14.8039 19.9099 15.3493 19.8018 15.816 19.564C16.5686 19.1805 17.1805 18.5686 17.564 17.816C18 16.9603 18 15.8402 18 13.6V13.4C18 11.1598 18 10.0397 17.564 9.18404C17.1805 8.43139 16.5686 7.81947 15.816 7.43597C14.9603 7 13.8402 7 11.6 7H8.4C6.15979 7 5.03969 7 4.18404 7.43597C3.43139 7.81947 2.81947 8.43139 2.43597 9.18404Z" fill="#666895"/>
<rect x="6" y="11" width="8" height="1" rx="0.5" fill="#D3E058"/>
<rect x="6" y="14" width="4" height="1" rx="0.5" fill="#D3E058"/>
</svg>
