<svg width="24" height="24" viewBox="0 0 24 24" fill="none" xmlns="http://www.w3.org/2000/svg">
<path fill-rule="evenodd" clip-rule="evenodd" d="M8 3H7.2C6.0799 3 5.51984 3 5.09202 3.21799C4.71569 3.40973 4.40973 3.71569 4.21799 4.09202C4 4.51984 4 5.07989 4 6.2V18.8C4 19.9201 4 20.4802 4.21799 20.908C4.40973 21.2843 4.71569 21.5903 5.09202 21.782C5.51984 22 6.0799 22 7.2 22H16.8C17.9201 22 18.4802 22 18.908 21.782C19.2843 21.5903 19.5903 21.2843 19.782 20.908C20 20.4802 20 19.9201 20 18.8V6.2C20 5.0799 20 4.51984 19.782 4.09202C19.5903 3.71569 19.2843 3.40973 18.908 3.21799C18.4802 3 17.9201 3 16.8 3H16C16 4.10457 15.1046 5 14 5H10C8.89543 5 8 4.10457 8 3Z" fill="#666895"/>
<rect x="7" y="10" width="10" height="1" rx="0.5" fill="#D3E058"/>
<rect x="7" y="13" width="8" height="1" rx="0.5" fill="#D3E058"/>
<rect x="7" y="16" width="6" height="1" rx="0.5" fill="#D3E058"/>
<rect x="9" y="1" width="6" height="3" rx="1" fill="#D3E058"/>
</svg>
