<svg width="24" height="24" viewBox="0 0 24 24" fill="none" xmlns="http://www.w3.org/2000/svg">
<rect x="2" y="14" width="4" height="10" fill="#666895"/>
<rect x="18" y="7" width="4" height="17" fill="#666895"/>
<rect x="10" y="12" width="4" height="12" fill="#666895"/>
<path fill-rule="evenodd" clip-rule="evenodd" d="M20 4C21.1046 4 22 3.10457 22 2C22 0.895431 21.1046 0 20 0C18.8954 0 18 0.895431 18 2C18 2.14366 18.0151 2.28377 18.0439 2.41884L13.5084 4.68671C13.1418 4.26593 12.6019 4 12 4C10.9005 4 10.0083 4.88718 10.0001 5.98471L5.75787 7.04531C5.41897 6.42261 4.75884 6 4 6C2.89543 6 2 6.89543 2 8C2 9.10457 2.89543 10 4 10C5.09937 10 5.99157 9.11297 5.99994 8.01557L10.2423 6.95494C10.5812 7.5775 11.2413 8 12 8C13.1046 8 14 7.10457 14 6C14 5.85627 13.9848 5.71608 13.956 5.58094L18.4914 3.31313C18.8581 3.73401 19.398 4 20 4Z" fill="#D4DC6B"/>
</svg>
