<svg width="24" height="24" viewBox="0 0 24 24" fill="none" xmlns="http://www.w3.org/2000/svg">
<circle cx="12" cy="12" r="11" fill="#666895"/>
<path d="M10.5335 15.5881V15.6881H10.6335H12.1676H12.2676V15.5881V15.5122C12.2761 14.9895 12.3309 14.5582 12.4299 14.216C12.5284 13.8754 12.6856 13.5841 12.9009 13.3404L12.9015 13.3397C13.1192 13.0891 13.4112 12.8481 13.7799 12.6177C14.1622 12.3831 14.4894 12.1129 14.7607 11.8067C15.0374 11.4991 15.2484 11.1497 15.3933 10.759C15.543 10.3668 15.617 9.93061 15.617 9.4517C15.617 8.77103 15.4598 8.1609 15.1431 7.62415C14.8307 7.08755 14.3864 6.66583 13.8129 6.35933C13.2418 6.05186 12.573 5.9 11.8097 5.9C11.1058 5.9 10.4622 6.03913 9.88064 6.31898L9.88038 6.31911C9.30203 6.59952 8.83452 7.0055 8.4794 7.53599L8.4794 7.53599L8.47908 7.53647C8.12663 8.06955 7.9349 8.70773 7.90011 9.447L7.89518 9.5517H8H9.6108H9.70425L9.71057 9.45847C9.74382 8.96798 9.86587 8.58014 10.0699 8.2881C10.2776 7.9908 10.5344 7.77513 10.8406 7.63816C11.1518 7.49893 11.4745 7.42955 11.8097 7.42955C12.196 7.42955 12.5446 7.50956 12.8575 7.66804C13.1699 7.82624 13.4184 8.05061 13.6047 8.34219C13.789 8.63067 13.883 8.97359 13.883 9.375C13.883 9.69963 13.8255 9.99278 13.7121 10.2559L13.7121 10.2559L13.7116 10.2571C13.6011 10.5231 13.4501 10.7577 13.2585 10.9617C13.0644 11.1639 12.8455 11.3395 12.6016 11.4884C12.1782 11.7433 11.8136 12.0229 11.5088 12.3277C11.1976 12.6389 10.9603 13.0431 10.7944 13.5363C10.6278 14.0319 10.5421 14.6914 10.5335 15.5103V15.5114V15.5881ZM12.0784 19.3045L12.079 19.3041C12.2675 19.1892 12.4176 19.037 12.5283 18.8482C12.6443 18.6576 12.7023 18.4481 12.7023 18.2216C12.7023 17.8793 12.5785 17.5834 12.3342 17.3391C12.0899 17.0948 11.7939 16.971 11.4517 16.971C11.1095 16.971 10.8135 17.0948 10.5692 17.3391C10.3249 17.5834 10.2011 17.8793 10.2011 18.2216C10.2011 18.5638 10.3249 18.8598 10.5692 19.1041C10.8135 19.3484 11.1095 19.4722 11.4517 19.4722C11.6815 19.4722 11.8913 19.4168 12.0784 19.3045Z" fill="#D4DC6B" stroke="#D4DC6B" stroke-width="0.2"/>
</svg>
