<svg width="24" height="24" viewBox="0 0 24 24" fill="none" xmlns="http://www.w3.org/2000/svg">
<path fill-rule="evenodd" clip-rule="evenodd" d="M15.2 4H4V22H15.2H15.2C16.8802 22 17.7202 22 18.362 21.673C18.9265 21.3854 19.3854 20.9265 19.673 20.362C20 19.7202 20 18.8802 20 17.2V8.8C20 7.11984 20 6.27976 19.673 5.63803C19.3854 5.07354 18.9265 4.6146 18.362 4.32698C17.7202 4 16.8802 4 15.2 4ZM14 9C14 10.1046 13.1046 11 12 11C10.8954 11 10 10.1046 10 9C10 7.89543 10.8954 7 12 7C13.1046 7 14 7.89543 14 9ZM7.41602 14.9997C8.18765 13.2339 9.94964 12 11.9998 12C14.0503 12 15.8124 13.2343 16.5839 15.0003C15.8123 16.7661 14.0503 18 12.0001 18C9.94967 18 8.1875 16.7657 7.41602 14.9997Z" fill="#666895"/>
<path d="M4 3L14.0768 0.674578C15.5723 0.329475 17 1.46525 17 3H4Z" fill="#D3E058"/>
</svg>
