<svg width="24" height="24" viewBox="0 0 24 24" fill="none" xmlns="http://www.w3.org/2000/svg">
<path fill-rule="evenodd" clip-rule="evenodd" d="M17.9966 15.7488C21.4487 14.8618 23.9997 11.7288 23.9997 8C23.9997 3.58172 20.418 0 15.9997 0C12.2709 0 9.13799 2.55107 8.25098 6.00309C13.5742 6.13436 17.8654 10.4255 17.9966 15.7488Z" fill="#666895"/>
<path d="M24 20.5H19M19 20.5L21.5 18M19 20.5L21.5 23" stroke="#666895"/>
<path d="M0 3.5H5M5 3.5L2.5 1M5 3.5L2.5 6" stroke="#666895"/>
<path fill-rule="evenodd" clip-rule="evenodd" d="M8 24C12.4183 24 16 20.4183 16 16C16 11.5817 12.4183 8 8 8C3.58172 8 0 11.5817 0 16C0 20.4183 3.58172 24 8 24ZM11 13H5V19H11V13Z" fill="#D4DC6B"/>
</svg>
