<svg width="24" height="24" viewBox="0 0 24 24" fill="none" xmlns="http://www.w3.org/2000/svg">
<path fill-rule="evenodd" clip-rule="evenodd" d="M12.083 21H6.2C5.07989 21 4.51984 21 4.09202 20.782C3.71569 20.5903 3.40973 20.2843 3.21799 19.908C3 19.4802 3 18.9201 3 17.8V5.2C3 4.07989 3 3.51984 3.21799 3.09202C3.40973 2.71569 3.7157 2.40973 4.09202 2.21799C4.51984 2 5.0799 2 6.2 2H12.6429V4.07778C12.6429 5.19788 12.6429 5.75794 12.8608 6.18576C13.0526 6.56208 13.3586 6.86804 13.7349 7.05979C14.1627 7.27778 14.7228 7.27778 15.8429 7.27778H18V14C14.6863 14 12 16.6863 12 20C12 20.3407 12.0284 20.6748 12.083 21Z" fill="#666895"/>
<path fill-rule="evenodd" clip-rule="evenodd" d="M18 16C15.7909 16 14 17.7909 14 20C14 22.2091 15.7909 24 18 24C20.2091 24 22 22.2091 22 20C22 17.7909 20.2091 16 18 16ZM18.5 17.7141C18.5 17.438 18.2762 17.2141 18 17.2141C17.7239 17.2141 17.5 17.438 17.5 17.7141V19.4998H15.7143C15.4382 19.4998 15.2143 19.7237 15.2143 19.9998C15.2143 20.276 15.4382 20.4998 15.7143 20.4998H17.5V22.2855C17.5 22.5617 17.7239 22.7855 18 22.7855C18.2762 22.7855 18.5 22.5617 18.5 22.2855V20.4998H20.2857C20.5619 20.4998 20.7857 20.276 20.7857 19.9998C20.7857 19.7237 20.5619 19.4998 20.2857 19.4998H18.5V17.7141Z" fill="#D3E058"/>
<path d="M10.2652 13.6172C9.86363 13.6172 9.63636 13.3999 9.63636 12.9808C9.63636 12.9498 9.63636 12.8498 9.63636 12.8187C9.63636 12.0271 9.86363 11.861 10.4242 11.4574C11.3902 10.9624 11.7716 10.4506 11.7716 9.90734C11.7716 9.30197 11.1667 8.9527 10.4621 8.9527C9.93939 8.9527 9.53788 9.21659 9.25757 9.68227L9.12121 9.8763C8.97727 10.0626 8.80304 10.1945 8.53788 10.1945C8.2803 10.1945 8 10.0005 8 9.64345C8 9.50376 8.0303 9.37182 8.06818 9.24763C8.49242 8.49503 9.07575 8 10.4242 8C11.7576 8 13 8.5724 13 9.90734C13 10.8697 12.4545 11.3354 11.697 11.8477C11.1515 12.2124 10.8846 12.3686 10.8846 12.8187C10.8846 12.842 10.9015 13.0119 10.9015 13.0429C10.9015 13.3611 10.6591 13.6172 10.2652 13.6172ZM10.25 16C9.79545 16 9.40151 15.6275 9.40151 15.1695C9.40151 14.7116 9.78788 14.3313 10.25 14.3313C10.7121 14.3313 11.0985 14.7039 11.0985 15.1695C11.0985 15.6352 10.7045 16 10.25 16Z" fill="#D3E058"/>
<path d="M14 4.4V2L18 6H15.6C15.0399 6 14.7599 6 14.546 5.89101C14.3578 5.79513 14.2049 5.64215 14.109 5.45399C14 5.24008 14 4.96005 14 4.4Z" fill="#666895"/>
</svg>
